<svg xmlns="http://www.w3.org/2000/svg" viewBox="0 0 283.5 170.1" style="enable-background:new 0 0 283.5 170.1" xml:space="preserve">
    <path fill="white" d="m61.9 66.6-6.7 9c-2.4-2.5-4.9-4.3-7.6-5.5-2.7-1.2-5.7-1.8-9-1.8-2.9 0-5 .5-6.3 1.4-1.4.9-2 2.1-2 3.6 0 1.2.5 2.2 1.6 2.9 1.1.8 2.8 1.4 5.1 1.9l9 2c5.3 1.2 9.2 3 11.7 5.4 2.5 2.4 3.7 5.6 3.7 9.5 0 5.6-2.1 9.9-6.2 12.9-4.2 3.1-9.6 4.6-16.4 4.6-5.3 0-10.2-.9-14.7-2.6-4.5-1.7-8.1-4.1-10.8-7l6.7-9.3c2 2.4 4.8 4.3 8.2 5.8s6.9 2.3 10.4 2.3c2.8 0 4.8-.4 6.3-1.2 1.4-.8 2.2-2 2.2-3.6 0-1.2-.4-2.2-1.2-3s-2.4-1.5-4.6-1.9l-9.9-2.2c-4.9-1.1-8.7-2.8-11.5-5.1s-4.1-5.6-4.1-9.8c0-3.3.9-6.3 2.8-9 1.8-2.6 4.5-4.7 8-6.2s7.6-2.2 12.3-2.2c9.7 0 17.4 3 23 9.1zM68.8 59.1h12.6v22.4c1.1-2.5 2.6-4.3 4.6-5.6s4.3-1.9 7.1-1.9c3.9 0 7 1.1 9.3 3.4 2.3 2.3 3.5 5.5 3.5 9.7v24.6H93.2V90.6c0-4.7-1.8-7-5.2-7-2 0-3.6.7-4.8 2.1s-1.8 3.6-1.8 6.6v19.4H68.8V59.1zM150.1 96.4h-25.2c.3 2.5 1.2 4.3 2.4 5.4s3.1 1.7 5.3 1.7c3.4 0 5.8-1.4 6.9-4.2l10.1 3.3c-1 3.1-3.1 5.5-6.2 7.2s-6.7 2.6-10.8 2.6c-6.2 0-11-1.7-14.6-5.1-3.6-3.4-5.4-8.1-5.4-14.2 0-4 .8-7.4 2.4-10.3 1.6-2.9 3.9-5.1 6.8-6.6s6.3-2.3 10.1-2.3 7.1.7 9.8 2.2 4.9 3.6 6.3 6.2c1.4 2.7 2.2 5.7 2.2 9.1.2 1.8.1 3.5-.1 5zm-25.2-6.7h13.4c-.4-4.6-2.6-6.9-6.4-6.9-3.8 0-6.2 2.4-7 6.9zM157.4 74.8h11.1l.5 8c2-5.8 5.7-8.7 11.2-8.7 1.7 0 3 .3 4 .8L183 85.2c-1.2-.4-2.8-.7-4.7-.7-2.4 0-4.4.7-6 2.2s-2.4 3.6-2.4 6.4v18.6h-12.6V74.8zM189.9 69.1c-1.2-1-1.7-2.5-1.7-4.6 0-2.1.6-3.7 1.7-4.6s3-1.4 5.6-1.4 4.4.5 5.6 1.4 1.7 2.5 1.7 4.6c0 2.1-.6 3.6-1.7 4.6-1.2 1-3 1.4-5.6 1.4-2.6 0-4.5-.5-5.6-1.4zm11.8 42.7h-12.6v-37h12.6v37zM244.2 77.5c2.3 2.3 3.5 5.5 3.5 9.7v24.6h-12.6V90.5c0-4.5-1.8-6.8-5.2-6.8-2 0-3.6.7-4.8 2.1s-1.9 3.5-1.9 6.4v19.6h-12.6v-37h11.2l.4 7.4c1.1-2.7 2.7-4.7 4.9-6.1s4.8-2.1 7.7-2.1c4 .1 7.1 1.2 9.4 3.5zM268.1 100.8c1.3 1.2 2 2.8 2 4.9 0 2.1-.6 3.7-2 4.9s-3.1 1.8-5.4 1.8c-2.3 0-4.1-.6-5.4-1.8-1.3-1.2-2-2.8-2-4.9 0-2.1.6-3.8 2-4.9 1.3-1.2 3.1-1.8 5.4-1.8s4.1.6 5.4 1.8z"/>
</svg>
