<svg xmlns="http://www.w3.org/2000/svg" viewBox="0 0 466.47 415.91" width="800" height="700">
    <path d="M425.18 317.78c-3.13 8.58-8.81 13.62-18.37 13.54-.65-.01-1.53.98-1.93 1.71-.65 1.19-.83 2.64-1.5 3.81-2.69 4.75-3.59 8.62.79 13.65 4.64 5.34 3.25 13.91-1.62 19.3-3.59 3.98-7.36 7.83-11.37 11.37-7.16 6.31-16.13 5.33-24.85-2.51-4.17 1.65-8.45 3.23-12.62 5.09-.67.3-1.08 1.77-1.14 2.73-.71 10.92-7.45 17.34-18.4 17.38-3.87.01-7.73.03-11.6 0-9.85-.09-16.84-6.45-17.44-16.28-.17-2.86-.99-4.42-3.82-4.8-.24-.03-.47-.16-.69-.28-5.35-2.93-9.9-4.41-15.67.68-5.02 4.42-13.42 2.64-18.61-2.07-3.87-3.52-7.63-7.2-11.13-11.09-6.04-6.7-5.97-16.16.24-22.71 1.89-1.99 2.19-3.47.79-5.74-1.04-1.68-1.93-3.57-2.32-5.48-.82-3.99-2.94-5.02-6.98-4.97-19.08.25-38.17.13-57.25.1-5.1-.01-8.29-2.67-8.58-6.95-.32-4.78 2.87-8.04 8.13-8.06 12.97-.05 25.95-.02 38.92-.02h4.14c0-4.79-.02-9.23 0-13.67.06-11.43 6.05-17.81 17.36-18.83 1.13-.1 2.25-1.31 3.19-2.21.48-.46.47-1.4.8-2.06 2.65-5.24 4.29-9.7-.69-15.36-4.55-5.16-2.86-13.7 1.95-18.94 3.54-3.86 7.24-7.58 11.11-11.11 6.55-5.98 16.02-5.86 22.72.34 1.88 1.74 3.2 2 5.47.8 3.28-1.74 6.83-2.96 10.21-4.37.35-2.51.37-5.07 1.08-7.41 2.08-6.8 6.69-11.21 13.83-11.93 5.68-.57 11.47-.53 17.18-.17 8.66.54 14.87 6.68 15.51 15.35.24 3.27 1.26 5.05 4.46 5.56.6.09 1.22.34 1.74.66 4.74 2.86 8.89 3.85 13.65-.83 2.24-2.2 6.62-2.21 10.54-3.36v-74.89H57.16c-.06 1.33-.17 2.64-.17 3.96-.01 43.66 0 87.32-.02 130.98 0 6.64 1.3 12.88 5.13 18.42 4.11 5.94 9.63 9.15 17.02 9.11 13.97-.09 27.94-.06 41.91 0 4.72.02 7.84 2.85 8.07 7.05.22 3.92-2.51 7.76-6.51 7.79-16.58.12-33.24.88-49.72-.52-15.52-1.31-27.58-15.29-30.18-31.9-.48-3.07-.74-6.2-.75-9.3-.04-69.61-.04-139.21-.03-208.82 0-13.66 4.38-25.45 15.06-34.41 5.93-4.98 12.85-7.52 20.63-7.52 94.8-.01 189.61-.03 284.41.02 16.56.01 30.81 12.51 34.55 30.29.94 4.47 1.25 9.15 1.26 13.74.08 51.27.04 102.54.12 153.81 0 1.81.54 4.08 1.69 5.34 9.41 10.33 9.62 17.52.41 28.2 1.62 4.08 3.22 8.23 4.97 12.31.27.63 1.23 1.4 1.86 1.39 9.4-.16 14.95 4.92 18.28 13.14.03 6.98.03 13.96.03 20.95zM57.17 138.03h325.56c0-3.32.01-6.41 0-9.5-.03-17.09.24-34.19-.19-51.27-.37-14.87-9.9-23.65-24.57-23.65h-36.68c-80.47 0-160.93.03-241.4-.05-7.03-.01-12.64 2.39-16.91 7.89-4.3 5.54-6 11.96-6 18.88 0 18.09 0 36.18.01 54.27 0 1.08.11 2.17.18 3.43zM381.05 371.2c1.59-1.97 2.92-3.93 4.56-5.6 6.64-6.76 6.67-6.73.23-13.38-3.64-3.76-3.73-6.33-1.42-11.1 2.65-5.46 5.17-11.04 7.1-16.78 2.29-6.81 3.61-8.15 10.84-8.15 8.69 0 7.75.64 7.76-7.9.02-9.09 0-9.09-9.18-9.36-5.15-.15-7.19-2.04-8.9-6.85-2.11-5.96-4.41-11.89-7.2-17.56-2.87-5.82-2.87-8.03 1.64-12.59 5.85-5.91 5.85-5.91 0-11.75-6.24-6.24-6.24-6.24-12.55-.11-4.1 3.98-6.65 4.05-11.7 1.63-5.8-2.78-11.79-5.26-17.87-7.36-5.39-1.86-7.21-3.81-7.28-9.72-.1-8.34-.1-8.34-8.3-8.34-8.91 0-8.91 0-9 8.81-.06 5.68-1.81 7.53-7.16 9.37-5.74 1.97-11.43 4.23-16.85 6.95-5.96 2.99-8.15 2.98-12.89-1.68-6.56-6.45-4.9-6.43-11.54.14-6.3 6.23-6.27 6.25-.17 12.53 4.17 4.29 4.21 6.56 1.6 12.01-2.68 5.58-5.49 7.48-11.02 6.94-7.7-.68-7.74 0-7.73-7.68 0-7.34-.05-7.35 7.12-7.32.16-3.28 3.97-4.59 5.77-2.97zM156.8 138.79h134.8c.01-5.92-.01-10.91 0-15.9-.09-11.96-8.41-19.74-19.59-19.75-41.47-.01-82.94 0-124.41-.01-11.74 0-18.41 7.47-18.74 18.91-.03 5.62 0 11.24-.01 16.87z"/>
</svg>
